<svg width="376" height="403" viewBox="0 0 376 403" fill="none" xmlns="http://www.w3.org/2000/svg">
<path d="M0 121.82C0 109.838 10.3645 100.503 22.2819 101.746C86.2409 108.416 267.881 124.781 299.909 99.3002C325.244 79.145 283.295 62.1898 250.778 52.7805C236.275 48.5838 229.927 30.669 239.446 18.9493L246.108 10.7459C251.359 4.28081 259.966 1.72023 267.743 4.69932C314.59 22.6428 464.479 88.5864 299.909 143.434C221.548 169.549 67.8608 152.498 16.8806 145.793C7.0951 144.506 0 136.149 0 126.279V121.82Z" fill="#52B3D0"/>
<path d="M0 281.15C0 293.132 10.3645 302.466 22.2819 301.224C86.2409 294.554 267.881 278.189 299.909 303.67C325.244 323.825 283.295 340.78 250.778 350.189C236.275 354.386 229.927 372.301 239.446 384.021L246.108 392.224C251.359 398.689 259.966 401.25 267.743 398.271C314.59 380.327 464.479 314.383 299.909 259.536C221.548 233.42 67.8608 250.472 16.8806 257.177C7.0951 258.464 0 266.821 0 276.691V281.15Z" fill="#52B3D0"/>
<rect y="181.47" width="374.992" height="39.7775" rx="18.026" fill="#52B3D0"/>
</svg>
